<?xml version="1.0" standalone="no"?>
<!DOCTYPE svg PUBLIC "-//W3C//DTD SVG 20010904//EN"
 "http://www.w3.org/TR/2001/REC-SVG-20010904/DTD/svg10.dtd">
<svg version="1.0" xmlns="http://www.w3.org/2000/svg"
 width="16.000000pt" height="16.000000pt" viewBox="0 0 16.000000 16.000000"
 preserveAspectRatio="xMidYMid meet">
<metadata>
Created by potrace 1.11, written by Peter Selinger 2001-2013
</metadata>
<g transform="translate(0.000000,16.000000) scale(0.001600,-0.001600)"
fill="#000000" stroke="none">
<path d="M721 8738 c-31 -80 -134 -338 -145 -363 -8 -16 -55 -133 -106 -260
-51 -126 -144 -358 -207 -515 -63 -156 -115 -289 -116 -294 -1 -7 327 -11 958
-12 528 -1 965 -2 972 -3 9 -1 4 -21 -13 -63 -15 -35 -40 -97 -56 -138 -17
-41 -34 -84 -39 -95 -5 -11 -29 -71 -54 -133 -25 -63 -56 -139 -69 -170 -32
-78 -39 -95 -42 -107 -2 -5 -21 -53 -42 -105 -22 -52 -111 -270 -197 -485 -86
-214 -163 -403 -170 -420 -7 -16 -41 -100 -75 -185 -34 -85 -90 -225 -125
-310 -35 -85 -125 -308 -200 -495 -75 -187 -166 -412 -202 -500 -36 -88 -78
-191 -94 -230 -15 -38 -33 -83 -40 -100 -7 -16 -13 -34 -15 -40 -2 -5 -43
-109 -93 -230 l-89 -220 856 -3 c471 -1 859 1 862 5 4 5 65 152 135 328 177
442 264 656 275 680 5 11 61 151 126 310 156 388 272 676 351 870 36 88 73
180 83 205 9 25 74 185 143 355 172 426 327 809 377 935 23 58 48 119 55 135
7 17 29 71 49 120 l36 90 976 0 c640 0 978 3 984 10 4 5 81 192 170 415 89
223 167 416 173 430 6 14 11 27 12 30 1 3 9 22 18 44 9 21 17 41 17 43 0 3 7
19 14 36 8 18 53 128 100 245 l84 212 -2814 0 -2814 0 -9 -22z"/>
<path d="M4173 6723 c-11 -30 -242 -605 -262 -653 -11 -25 -34 -81 -51 -125
-17 -44 -35 -89 -40 -100 -5 -11 -56 -137 -114 -280 -125 -313 -394 -980 -409
-1015 -6 -14 -11 -27 -12 -30 -1 -3 -7 -18 -13 -33 -7 -16 -12 -30 -12 -32 0
-3 -11 -29 -25 -59 -14 -30 -25 -58 -25 -61 0 -4 -6 -21 -14 -38 -8 -18 -51
-124 -96 -237 -45 -113 -88 -219 -95 -235 -8 -17 -31 -75 -53 -130 -22 -55
-124 -309 -227 -565 -212 -524 -234 -586 -270 -745 -34 -152 -40 -207 -40
-360 1 -156 8 -208 46 -336 57 -194 147 -311 294 -384 134 -68 -37 -63 2543
-62 l2344 2 209 520 c116 286 276 682 356 880 80 198 159 394 175 435 17 41
35 86 40 100 6 14 12 30 14 35 2 6 21 53 42 105 22 52 115 282 207 510 92 228
172 426 178 440 6 14 11 27 12 30 1 3 6 14 10 25 9 22 88 218 155 385 23 58
47 119 55 135 7 17 41 100 75 185 34 85 114 283 177 440 63 157 149 368 189
470 41 102 79 194 84 205 9 21 93 230 142 355 17 41 36 89 43 105 7 17 23 54
34 83 l21 52 -782 -2 -781 -3 -117 -290 c-64 -159 -124 -307 -133 -329 -9 -21
-17 -42 -17 -46 0 -4 -6 -20 -14 -36 -8 -16 -80 -193 -161 -394 -81 -201 -152
-376 -158 -390 -5 -14 -11 -29 -13 -35 -1 -5 -11 -30 -22 -55 -11 -25 -61
-148 -111 -275 -51 -126 -98 -243 -106 -260 -7 -16 -41 -97 -74 -180 -33 -82
-121 -301 -196 -485 -75 -184 -137 -339 -139 -345 -2 -5 -8 -22 -14 -37 -6
-15 -34 -84 -62 -155 -50 -123 -92 -226 -110 -268 -5 -11 -41 -101 -80 -200
-40 -99 -79 -196 -87 -215 l-15 -35 -1266 1 c-697 1 -1268 2 -1269 3 -4 1 311
788 362 906 7 17 40 98 73 180 34 83 93 228 131 323 39 95 71 178 71 185 0 7
4 17 8 23 5 5 39 86 76 179 38 94 74 184 81 200 7 17 57 138 109 270 53 132
100 249 105 260 12 27 17 41 147 362 63 156 120 295 126 310 6 16 12 33 14 38
3 11 80 200 94 230 5 11 58 143 119 293 l110 272 -790 0 c-743 0 -790 -1 -796
-17z"/>
</g>
</svg>
